<svg width="34" height="23" viewBox="0 0 34 23" fill="none" xmlns="http://www.w3.org/2000/svg">
<path d="M29.7505 2.90196C25.947 0.129638 22.4029 0.0143847 21.7258 0L21.2936 0.416633C26.1487 1.79573 28.4971 3.95065 28.4971 3.95065C24.3297 1.90619 20.4025 1.18722 17.0002 1.14398C13.598 1.18757 9.67076 1.90619 5.50344 3.95065C5.50344 3.95065 7.85179 1.79573 12.707 0.416633L12.2747 0C11.5976 0.0143847 8.05347 0.129289 4.25005 2.90196C4.25005 2.90196 0 10.1424 0 19.035C0.144014 18.8626 2.63646 22.8563 9.062 23C9.062 23 10.1425 21.7789 10.9205 20.7014C7.17463 19.624 5.7628 17.4691 5.7628 17.4691C9.65703 19.9151 13.2944 20.8562 17.0002 20.7339C20.7061 20.856 24.3434 19.9151 28.2376 17.4691C28.2376 17.4691 26.8258 19.624 23.0795 20.7014C23.8575 21.7789 24.9381 23 24.9381 23C31.3635 22.8563 33.856 18.8626 34 19.035C34.0004 10.1424 29.7505 2.90196 29.7505 2.90196ZM11.7701 16.248C10.1277 16.248 8.8023 14.8688 8.8023 13.1736C8.8023 11.4784 10.1277 10.0993 11.7701 10.0993V10.1137C13.3981 10.1137 14.738 11.4929 14.738 13.188C14.7383 14.8688 13.4127 16.248 11.7705 16.248H11.7701ZM22.2296 16.248C20.5872 16.248 19.2618 14.8688 19.2618 13.188C19.2618 11.4929 20.6016 10.1137 22.2296 10.1137V10.0993C23.872 10.0993 25.1974 11.4785 25.1974 13.1736C25.1974 14.8687 23.8724 16.248 22.23 16.248H22.2296Z" fill="white"/>
</svg>
