<svg width="49" height="49" viewBox="0 0 49 49" fill="none" xmlns="http://www.w3.org/2000/svg">
<circle cx="24.4996" cy="24.5" r="18.8023" fill="white"/>
<path fill-rule="evenodd" clip-rule="evenodd" d="M34.2418 19.5035C34.251 19.7194 34.2571 19.9353 34.2571 20.1543C34.2571 26.7953 29.2009 34.4547 19.9552 34.4547C17.1163 34.4547 14.4749 33.6232 12.25 32.1976C12.6435 32.2435 13.0432 32.2665 13.449 32.2665C15.804 32.2665 17.9707 31.4641 19.6919 30.1151C17.4915 30.0753 15.6356 28.6221 14.9955 26.6254C15.3033 26.6836 15.6172 26.7142 15.9418 26.7142C16.3997 26.7142 16.8438 26.6529 17.2664 26.5381C14.9664 26.0772 13.2346 24.0452 13.2346 21.6105V21.5462C13.9114 21.9229 14.6877 22.1495 15.5116 22.1756C14.1625 21.2737 13.2744 19.7348 13.2744 17.9922C13.2744 17.0704 13.5225 16.2068 13.9558 15.4641C16.4349 18.5052 20.139 20.5065 24.3162 20.7163C24.2305 20.3488 24.1861 19.9644 24.1861 19.5709C24.1861 16.7948 26.437 14.5438 29.2117 14.5438C30.6587 14.5438 31.9648 15.1548 32.8805 16.1317C34.0259 15.9066 35.1024 15.4886 36.0732 14.9128C35.698 16.0858 34.9002 17.0704 33.8636 17.6936C34.8803 17.5711 35.8481 17.3016 36.75 16.9019C36.0762 17.9095 35.2233 18.7946 34.2418 19.5035ZM24.5 0C10.9683 0 0 10.9683 0 24.5C0 38.0301 10.9683 49 24.5 49C38.0317 49 49 38.0301 49 24.5C49 10.9683 38.0317 0 24.5 0" fill="#4E9AD9"/>
</svg>
